<?xml version="1.0" encoding="utf-8"?>
<!-- Generator: Adobe Illustrator 26.5.0, SVG Export Plug-In . SVG Version: 6.00 Build 0)  -->
<svg version="1.1" id="레이어_1" xmlns="http://www.w3.org/2000/svg" xmlns:xlink="http://www.w3.org/1999/xlink" x="0px"
	 y="0px" viewBox="0 0 512 512" style="enable-background:new 0 0 512 512;" xml:space="preserve">
<path id="circle_notifications_FILL1_wght400_GRAD0_opsz48" d="M256,425c9.6,0.1,18.8-3.9,25.3-10.9c6.8-6.8,10.7-16,10.6-25.6
	h-72.3C219.9,408.5,236,424.6,256,425z M131.9,350.1h247.6v-38.4h-25.6v-73.6c0.3-25.1-6.7-49.8-20.1-71c-12.4-20.6-33-34.8-56.6-39
	v-19.2c0.2-11.5-9-20.9-20.5-21.1c-0.2,0-0.4,0-0.6,0c-5.7-0.1-11.2,2.1-15.4,6c-4.2,3.9-6.5,9.4-6.4,15.1V128
	c-23.3,4.1-43.8,17.7-56.6,37.6c-13.4,20.3-20.4,44.2-20.1,68.5v77.4H132L131.9,350.1z M256,512c-34.7,0.3-69.1-6.3-101.1-19.5
	C93.4,467.3,44.7,418.6,19.5,357.1C6.3,325.1-0.3,290.7,0,256c-0.3-34.5,6.4-68.6,19.5-100.5c12.5-30.4,31-58,54.2-81.3
	C122.1,26.1,187.8-0.6,256,0c140.2-1.1,254.9,111.6,256,251.9c0,1.4,0,2.7,0,4.1c0.6,68.3-26.1,134-74.2,182.4
	c-23.3,23.2-50.9,41.7-81.3,54.2C324.6,505.7,290.4,512.3,256,512z"/>
</svg>
