<?xml version="1.0" encoding="utf-8"?>
<!-- Generator: Adobe Illustrator 26.4.1, SVG Export Plug-In . SVG Version: 6.00 Build 0)  -->
<svg version="1.1" id="레이어_1" xmlns="http://www.w3.org/2000/svg" xmlns:xlink="http://www.w3.org/1999/xlink" x="0px"
	 y="0px" viewBox="0 0 512 512" style="enable-background:new 0 0 512 512;" xml:space="preserve">
<path id="check_circle_FILL1_wght400_GRAD0_opsz48" d="M218.3,372.5l181-181L370,162.7L218.3,314.3l-76.8-76.8l-28.8,28.8
	L218.3,372.5z M256,512c-34.1,0.2-67.8-6.7-99.1-20.1C95.3,465.7,46.4,416.8,20.2,355.3c-26.9-63.6-26.9-135.4,0-199
	c12.9-30.4,31.6-58,55-81.3c23.5-23.3,51.2-41.9,81.6-54.8c63.6-26.9,135.4-26.9,199,0c61.3,25.9,110.1,74.8,136,136.1
	c26.9,63.6,26.9,135.4,0,199c-13,30.4-31.6,58.1-54.8,81.6c-23.3,23.4-50.9,42.1-81.2,55C324.2,505.3,290.2,512.2,256,512z"/>
</svg>
