<?xml version="1.0" encoding="utf-8"?>
<!-- Generator: Adobe Illustrator 26.5.0, SVG Export Plug-In . SVG Version: 6.00 Build 0)  -->
<svg version="1.1" id="레이어_1" xmlns="http://www.w3.org/2000/svg" xmlns:xlink="http://www.w3.org/1999/xlink" x="0px"
	 y="0px" viewBox="0 0 512 512" style="enable-background:new 0 0 512 512;" xml:space="preserve">
<g>
	<path id="autorenew_FILL1_wght400_GRAD0_opsz48" d="M66.7,342.1c-8.5-13-14.8-27.3-18.7-42.4c-3.6-14.2-5.3-28.8-5.3-43.4
		c0.1-51.1,23.2-99.5,63-131.6c41.4-36.6,95.1-56.3,150.3-55.2h28.7l-53.3-46.7l26-22.8l99.3,87l-99.3,87l-26.7-23.4l52.7-46.1H256
		c-44.9-1-88.6,15-122.3,44.7c-41.1,33.6-59.5,87.6-47.3,139.2c2.3,9.7,5.3,19.3,9,28.6L66.7,342.1z M253.3,512L154,425l99.3-87
		l26,22.8L226,407.5h30c44.9,1,88.6-15,122.3-44.7c32.3-26.2,51.1-65.6,51-107.1c0.1-10.8-1.1-21.6-3.3-32.1
		c-2.2-9.9-5.5-19.5-10-28.6l28.7-25.1c8.5,13.1,14.9,27.3,19,42.3c17.2,64.6-5.3,133.2-57.3,175.1c-41.4,36.6-95.1,56.3-150.4,55.2
		h-30l53.3,46.7L253.3,512z"/>
</g>
</svg>
