<?xml version="1.0" encoding="utf-8"?>
<!-- Generator: Adobe Illustrator 26.4.1, SVG Export Plug-In . SVG Version: 6.00 Build 0)  -->
<svg version="1.1" id="레이어_1" xmlns="http://www.w3.org/2000/svg" xmlns:xlink="http://www.w3.org/1999/xlink" x="0px"
	 y="0px" viewBox="0 0 512 512" style="enable-background:new 0 0 512 512;" xml:space="preserve">
<path id="ballot_FILL1_wght400_GRAD0_opsz48" d="M236.8,195.6h162.1v-42.7H236.8V195.6z M236.8,359.1h162.1v-42.7H236.8V359.1z
	 M162.1,211.2c20.8,0.4,38-16.2,38.3-37s-16.2-38-37-38.3s-38,16.2-38.3,37c-0.2,10.2,3.8,20.1,11,27.3
	C142.9,207.3,152.3,211.3,162.1,211.2z M162.1,374.8c20.8,0.4,37.9-16.2,38.3-37c0.4-20.8-16.2-37.9-37-38.3s-37.9,16.2-38.3,37
	c-0.2,10.2,3.8,20.1,11,27.3C142.9,370.8,152.3,374.8,162.1,374.8z M42.7,512C19.3,511.4,0.6,492.7,0,469.3V42.7
	C0.6,19.3,19.3,0.6,42.7,0h426.7c23.3,0.6,42.1,19.3,42.7,42.7v426.7c-0.6,23.3-19.3,42.1-42.7,42.7H42.7z"/>
</svg>
