<?xml version="1.0" encoding="utf-8"?>
<!-- Generator: Adobe Illustrator 26.4.1, SVG Export Plug-In . SVG Version: 6.00 Build 0)  -->
<svg version="1.1" id="레이어_1" xmlns="http://www.w3.org/2000/svg" xmlns:xlink="http://www.w3.org/1999/xlink" x="0px"
	 y="0px" viewBox="0 0 512 512" style="enable-background:new 0 0 512 512;" xml:space="preserve">
<path id="search_FILL1_wght400_GRAD0_opsz48" d="M480.7,512l-187-187c-14.7,12.6-31.5,22.4-49.8,28.8c-19.4,6.9-39.8,10.4-60.4,10.2
	c-48.9,1-96-18.3-130.1-53.3C18.6,277-0.7,230.5,0,182.1c-0.8-48.4,18.5-95,53.3-128.7C87.3,18.5,134.1-0.8,182.8,0
	c48.3-0.8,94.8,18.5,128.4,53.3c49,49.2,65.7,122.1,43,187.7c-6.9,19.3-17,37.4-29.9,53.3L512,480.7L480.7,512z M182.8,321.4
	c37,0.6,72.5-14.3,98.1-41c26.4-25.9,41.1-61.5,40.5-98.5c0.6-37-14.1-72.6-40.5-98.5c-25.6-26.7-61.1-41.5-98.1-41
	c-37.3-0.6-73.2,14.2-99.2,41c-26.7,25.8-41.5,61.4-41,98.5c-0.5,37.1,14.3,72.7,41,98.5C109.6,307.3,145.5,322.1,182.8,321.4z"/>
</svg>
